<svg t="1575446045558" class="icon" viewBox="0 0 1024 1024" version="1.1" xmlns="http://www.w3.org/2000/svg" p-id="1036" width="200" height="200"><path d="M862.585239 142.7274a54.850992 54.850992 0 1 1-76.133177 78.912293 399.31522 399.31522 0 1 0 106.045251 175.230635 54.850992 54.850992 0 0 1 105.313904-31.009094 509.163472 509.163472 0 0 1-929.395204 397.852527 509.017203 509.017203 0 0 1 794.24236-621.059496z" p-id="1037"></path><path d="M531.212114 320.371478a54.850992 54.850992 0 1 0-109.701983 0v273.889286c0 30.058343 24.134436 54.485318 54.192779 54.850991l191.759067 2.340309a54.850992 54.850992 0 1 0 1.316424-109.701983l-137.493152-1.682097V320.444613z" p-id="1038"></path></svg>