<svg t="1575446031035" class="icon" viewBox="0 0 1024 1024" version="1.1" xmlns="http://www.w3.org/2000/svg" p-id="924" width="200" height="200"><path d="M490.564267 57.344c70.382933 0 138.717867 15.428267 201.181866 44.6464a51.2 51.2 0 0 1-43.4176 92.7744 372.599467 372.599467 0 1 0 207.6672 264.260267 51.2 51.2 0 1 1 100.352-20.0704A474.999467 474.999467 0 1 1 490.632533 57.344z m311.159466 164.113067a51.2 51.2 0 1 1 74.752 70.0416L521.693867 670.378667a51.2 51.2 0 0 1-72.021334 2.594133L292.4544 528.452267A51.2 51.2 0 0 1 361.813333 453.085867L481.621333 563.2z" p-id="925"></path></svg>