<?xml version="1.0" standalone="no"?><!DOCTYPE svg PUBLIC "-//W3C//DTD SVG 1.1//EN" "http://www.w3.org/Graphics/SVG/1.1/DTD/svg11.dtd"><svg t="1560073666394" class="icon" style="" viewBox="0 0 1024 1024" version="1.1" xmlns="http://www.w3.org/2000/svg" p-id="23364" xmlns:xlink="http://www.w3.org/1999/xlink" width="200" height="200"><defs><style type="text/css"></style></defs><path d="M145.7152 512.0512L204.8 570.368V614.4h716.8V409.6H204.8v44.032l-59.0848 58.4192zM102.4 307.2h921.6v409.6H102.4v-103.6288l-102.4-101.0688 102.4-101.2224V307.2z" p-id="23365"></path><path d="M307.2 588.8v-51.2a25.6 25.6 0 1 0 0-51.2v-51.2a76.8 76.8 0 0 1 0 153.6zM409.6 588.8v-51.2a25.6 25.6 0 1 0 0-51.2v-51.2a76.8 76.8 0 0 1 0 153.6z" p-id="23366"></path></svg>