<?xml version="1.0" encoding="UTF-8"?>
<svg width="20px" height="20px" viewBox="0 0 20 20" version="1.1" xmlns="http://www.w3.org/2000/svg" xmlns:xlink="http://www.w3.org/1999/xlink">
    <!-- Generator: Sketch 52.4 (67378) - http://www.bohemiancoding.com/sketch -->
    <title>icon/编辑/优惠券样式一</title>
    <desc>Created with Sketch.</desc>
    <g id="icon/编辑/优惠券样式一" stroke="none" stroke-width="1" fill="none" fill-rule="evenodd">
        <path d="M20,3 L0,3 L0,9 C0.552,9 1,9.448 1,10 C1,10.552 0.552,11 0,11 L0,17 L20,17 L20,11 C19.448,11 19,10.552 19,10 C19,9.448 19.448,9 20,9 L20,3 Z M18,5 L18,7.766 C17.387,8.315 17,9.113 17,10 C17,10.887 17.387,11.685 18,12.234 L18,15 L2,15 L2,12.234 C2.613,11.685 3,10.887 3,10 C3,9.113 2.613,8.315 2,7.766 L2,5 L18,5 Z" id="Fill-1" fill="#979797"></path>
        <rect id="Rectangle" fill="#979797" fill-rule="nonzero" x="7" y="7" width="6" height="2"></rect>
        <rect id="Rectangle-Copy" fill="#979797" fill-rule="nonzero" x="7" y="11" width="6" height="2"></rect>
    </g>
</svg>