<?xml version="1.0" standalone="no"?><!DOCTYPE svg PUBLIC "-//W3C//DTD SVG 1.1//EN" "http://www.w3.org/Graphics/SVG/1.1/DTD/svg11.dtd"><svg class="icon" width="200px" height="200.00px" viewBox="0 0 1024 1024" version="1.1" xmlns="http://www.w3.org/2000/svg"><path fill="#323233" d="M153.6 153.6h102.4v102.4H153.6zM153.6 358.4h102.4v102.4H153.6zM358.4 153.6h102.4v102.4H358.4zM358.4 358.4h102.4v102.4H358.4zM563.2 153.6h102.4v102.4h-102.4zM563.2 358.4h102.4v102.4h-102.4zM768 153.6h102.4v102.4h-102.4zM768 358.4h102.4v102.4h-102.4zM153.6 563.2h102.4v102.4H153.6zM358.4 563.2h102.4v102.4H358.4zM563.2 563.2h102.4v102.4h-102.4zM768 563.2h102.4v102.4h-102.4zM153.6 768h102.4v102.4H153.6zM358.4 768h102.4v102.4H358.4zM563.2 768h102.4v102.4h-102.4z" /></svg>
