<?xml version="1.0" encoding="UTF-8"?>
<svg width="20px" height="20px" viewBox="0 0 20 20" version="1.1" xmlns="http://www.w3.org/2000/svg" xmlns:xlink="http://www.w3.org/1999/xlink">
    <!-- Generator: Sketch 52.4 (67378) - http://www.bohemiancoding.com/sketch -->
    <title>icon/全局/删除</title>
    <desc>Created with Sketch.</desc>
    <g id="icon/全局/删除" stroke="none" stroke-width="1" fill="none" fill-rule="evenodd">
        <path d="M17,7 L17,17 C17,17.5522847 16.5522847,18 16,18 L15,18 L5,18 L4,18 C3.44771525,18 3,17.5522847 3,17 L3,7 L2,7 L2,5 L18,5 L18,7 L17,7 Z M15,7 L5,7 L5,16 L15,16 L15,7 Z M5,2 L15,2 L15,4 L5,4 L5,2 Z M7,9 L9,9 L9,14 L7,14 L7,9 Z M11,9 L13,9 L13,14 L11,14 L11,9 Z" id="Combined-Shape" fill="#7D7E80"></path>
    </g>
</svg>