<?xml version="1.0" encoding="UTF-8"?>
<svg width="20px" height="20px" viewBox="0 0 20 20" version="1.1" xmlns="http://www.w3.org/2000/svg" xmlns:xlink="http://www.w3.org/1999/xlink">
    <!-- Generator: Sketch 52.4 (67378) - http://www.bohemiancoding.com/sketch -->
    <title>Untitled</title>
    <desc>Created with Sketch.</desc>
    <g id="Page-1" stroke="none" stroke-width="1" fill="none" fill-rule="evenodd">
        <g id="悬浮" transform="translate(3.000000, 3.000000)" fill="#7D7E80" fill-rule="nonzero">
            <path d="M3,6.5 C1.06700338,6.5 -0.5,4.93299662 -0.5,3 C-0.5,1.06700338 1.06700338,-0.5 3,-0.5 C4.93299662,-0.5 6.5,1.06700338 6.5,3 C6.5,4.93299662 4.93299662,6.5 3,6.5 Z M3,4.5 C3.82842712,4.5 4.5,3.82842712 4.5,3 C4.5,2.17157288 3.82842712,1.5 3,1.5 C2.17157288,1.5 1.5,2.17157288 1.5,3 C1.5,3.82842712 2.17157288,4.5 3,4.5 Z" id="Oval"></path>
            <path d="M11,6.5 C9.06700338,6.5 7.5,4.93299662 7.5,3 C7.5,1.06700338 9.06700338,-0.5 11,-0.5 C12.9329966,-0.5 14.5,1.06700338 14.5,3 C14.5,4.93299662 12.9329966,6.5 11,6.5 Z M11,4.5 C11.8284271,4.5 12.5,3.82842712 12.5,3 C12.5,2.17157288 11.8284271,1.5 11,1.5 C10.1715729,1.5 9.5,2.17157288 9.5,3 C9.5,3.82842712 10.1715729,4.5 11,4.5 Z" id="Oval-Copy"></path>
            <path d="M3,14.5 C1.06700338,14.5 -0.5,12.9329966 -0.5,11 C-0.5,9.06700338 1.06700338,7.5 3,7.5 C4.93299662,7.5 6.5,9.06700338 6.5,11 C6.5,12.9329966 4.93299662,14.5 3,14.5 Z M3,12.5 C3.82842712,12.5 4.5,11.8284271 4.5,11 C4.5,10.1715729 3.82842712,9.5 3,9.5 C2.17157288,9.5 1.5,10.1715729 1.5,11 C1.5,11.8284271 2.17157288,12.5 3,12.5 Z" id="Oval"></path>
            <path d="M11,14.5 C9.06700338,14.5 7.5,12.9329966 7.5,11 C7.5,9.06700338 9.06700338,7.5 11,7.5 C12.9329966,7.5 14.5,9.06700338 14.5,11 C14.5,12.9329966 12.9329966,14.5 11,14.5 Z M11,12.5 C11.8284271,12.5 12.5,11.8284271 12.5,11 C12.5,10.1715729 11.8284271,9.5 11,9.5 C10.1715729,9.5 9.5,10.1715729 9.5,11 C9.5,11.8284271 10.1715729,12.5 11,12.5 Z" id="Oval-Copy"></path>
        </g>
    </g>
</svg>