<?xml version="1.0" encoding="UTF-8"?>
<svg width="20px" height="20px" viewBox="0 0 20 20" version="1.1" xmlns="http://www.w3.org/2000/svg" xmlns:xlink="http://www.w3.org/1999/xlink">
    <!-- Generator: Sketch 52.4 (67378) - http://www.bohemiancoding.com/sketch -->
    <title>icon/编辑/填充</title>
    <desc>Created with Sketch.</desc>
    <g id="icon/编辑/填充" stroke="none" stroke-width="1" fill="none" fill-rule="evenodd">
        <path d="M3,3 L3,17 L17,17 L17,3 L3,3 Z M1,1 L19,1 L19,19 L1,19 L1,1 Z" id="Rectangle" fill="#155bd4" fill-rule="nonzero"></path>
        <path d="M6,4 L8,4 L8,6 L6,6 L6,8 L4,8 L4,4 L6,4 Z" id="Combined-Shape" fill="#155bd4" fill-rule="nonzero"></path>
        <path d="M14,12 L16,12 L16,14 L14,14 L14,16 L12,16 L12,12 L14,12 Z" id="Combined-Shape-Copy" fill="#155bd4" fill-rule="nonzero" transform="translate(14.000000, 14.000000) scale(-1, -1) translate(-14.000000, -14.000000) "></path>
    </g>
</svg>
