<?xml version="1.0" standalone="no"?><!DOCTYPE svg PUBLIC "-//W3C//DTD SVG 1.1//EN" "http://www.w3.org/Graphics/SVG/1.1/DTD/svg11.dtd"><svg t="1560072986772" class="icon" style="" viewBox="0 0 1024 1024" version="1.1" xmlns="http://www.w3.org/2000/svg" p-id="20126" xmlns:xlink="http://www.w3.org/1999/xlink" width="200" height="200"><defs><style type="text/css"></style></defs><path d="M0 409.6m102.4 0l0 0q102.4 0 102.4 102.4l0 0q0 102.4-102.4 102.4l0 0q-102.4 0-102.4-102.4l0 0q0-102.4 102.4-102.4Z" p-id="20127"></path><path d="M819.2 409.6m102.4 0l0 0q102.4 0 102.4 102.4l0 0q0 102.4-102.4 102.4l0 0q-102.4 0-102.4-102.4l0 0q0-102.4 102.4-102.4Z" p-id="20128"></path><path d="M332.8 486.4m25.6 0l0 0q25.6 0 25.6 25.6l0 0q0 25.6-25.6 25.6l0 0q-25.6 0-25.6-25.6l0 0q0-25.6 25.6-25.6Z" p-id="20129"></path><path d="M435.2 486.4m25.6 0l0 0q25.6 0 25.6 25.6l0 0q0 25.6-25.6 25.6l0 0q-25.6 0-25.6-25.6l0 0q0-25.6 25.6-25.6Z" p-id="20130"></path><path d="M537.6 486.4m25.6 0l0 0q25.6 0 25.6 25.6l0 0q0 25.6-25.6 25.6l0 0q-25.6 0-25.6-25.6l0 0q0-25.6 25.6-25.6Z" p-id="20131"></path><path d="M640 486.4m25.6 0l0 0q25.6 0 25.6 25.6l0 0q0 25.6-25.6 25.6l0 0q-25.6 0-25.6-25.6l0 0q0-25.6 25.6-25.6Z" p-id="20132"></path><path d="M742.4 486.4m25.6 0l0 0q25.6 0 25.6 25.6l0 0q0 25.6-25.6 25.6l0 0q-25.6 0-25.6-25.6l0 0q0-25.6 25.6-25.6Z" p-id="20133"></path><path d="M230.4 486.4m25.6 0l0 0q25.6 0 25.6 25.6l0 0q0 25.6-25.6 25.6l0 0q-25.6 0-25.6-25.6l0 0q0-25.6 25.6-25.6Z" p-id="20134"></path></svg>