<?xml version="1.0" encoding="UTF-8"?>
<svg width="20px" height="20px" viewBox="0 0 20 20" version="1.1" xmlns="http://www.w3.org/2000/svg" xmlns:xlink="http://www.w3.org/1999/xlink">
    <!-- Generator: Sketch 52.4 (67378) - http://www.bohemiancoding.com/sketch -->
    <title>icon/编辑/限时折扣进度条1</title>
    <desc>Created with Sketch.</desc>
    <g id="icon/编辑/限时折扣进度条1" stroke="none" stroke-width="1" fill="none" fill-rule="evenodd">
        <path d="M3,7 L17,7 C18.6568542,7 20,8.34314575 20,10 C20,11.6568542 18.6568542,13 17,13 L3,13 C1.34314575,13 2.02906125e-16,11.6568542 0,10 C-2.02906125e-16,8.34314575 1.34314575,7 3,7 Z M3,9 C2.44771525,9 2,9.44771525 2,10 C2,10.5522847 2.44771525,11 3,11 L17,11 C17.5522847,11 18,10.5522847 18,10 C18,9.44771525 17.5522847,9 17,9 L3,9 Z" id="Combined-Shape" fill="#979797" fill-rule="nonzero"></path>
        <polygon id="Rectangle" fill="#979797" fill-rule="nonzero" points="2 9 9 9 7 11 2 11"></polygon>
        <polygon id="Rectangle-Copy" fill="#979797" fill-rule="nonzero" points="11 9 13 9 11 11 9 11"></polygon>
    </g>
</svg>