<?xml version="1.0" encoding="UTF-8"?>
<svg width="20px" height="20px" viewBox="0 0 20 20" version="1.1" xmlns="http://www.w3.org/2000/svg" xmlns:xlink="http://www.w3.org/1999/xlink">
    <!-- Generator: Sketch 52.4 (67378) - http://www.bohemiancoding.com/sketch -->
    <title>icon/编辑/搜索框 方形</title>
    <desc>Created with Sketch.</desc>
    <g id="icon/编辑/搜索框-方形" stroke="none" stroke-width="1" fill="none" fill-rule="evenodd">
        <path d="M2,14 L2,5 L18,5 L18,14.0110924 L20,14.0110924 L20,3 L0,3 L0,16 L5,16 L5,14 L2,14 Z M18,5 L18,14.0110924 L20,14.0110924 L20,3 L0,3 L0,16 L5,16 L5,14 L2,14 L2,5 L18,5 Z" id="Path" fill="#979797" fill-rule="nonzero"></path>
        <g id="Group" transform="translate(13.424621, 13.424621) rotate(-45.000000) translate(-13.424621, -13.424621) translate(8.424621, 5.924621)" fill="#979797" fill-rule="nonzero">
            <path d="M5,10 C2.23857625,10 4.54747351e-13,7.76142375 4.54747351e-13,5 C4.54747351e-13,2.23857625 2.23857625,-9.09494702e-13 5,-9.09494702e-13 C7.76142375,-9.09494702e-13 10,2.23857625 10,5 C10,7.76142375 7.76142375,10 5,10 Z M5,8 C6.65685425,8 8,6.65685425 8,5 C8,3.34314575 6.65685425,2 5,2 C3.34314575,2 2,3.34314575 2,5 C2,6.65685425 3.34314575,8 5,8 Z" id="Oval"></path>
            <rect id="Rectangle" x="4" y="9" width="2" height="6"></rect>
        </g>
    </g>
</svg>