<?xml version="1.0" encoding="UTF-8"?>
<svg width="20px" height="20px" viewBox="0 0 20 20" version="1.1" xmlns="http://www.w3.org/2000/svg" xmlns:xlink="http://www.w3.org/1999/xlink">
    <!-- Generator: Sketch 52.4 (67378) - http://www.bohemiancoding.com/sketch -->
    <title>icon/编辑/滚动至顶部固定</title>
    <desc>Created with Sketch.</desc>
    <g id="icon/编辑/滚动至顶部固定" stroke="none" stroke-width="1" fill="none" fill-rule="evenodd">
        <path d="M5,3 L5,17 L15,17 L15,3 L5,3 Z M4,1 L16,1 C16.5522847,1 17,1.44771525 17,2 L17,18 C17,18.5522847 16.5522847,19 16,19 L4,19 C3.44771525,19 3,18.5522847 3,18 L3,2 C3,1.44771525 3.44771525,1 4,1 Z" id="Rectangle" fill="#7D7E80" fill-rule="nonzero"></path>
        <rect id="Rectangle" fill="#7D7E80" fill-rule="nonzero" x="6" y="5" width="8" height="2"></rect>
        <polygon id="Path-9" fill="#7D7E80" fill-rule="nonzero" points="8.70710678 11.2071068 7.29289322 9.79289322 10 7.08578644 12.7071068 9.79289322 11.2928932 11.2071068 10 9.91421356"></polygon>
    </g>
</svg>