<?xml version="1.0" encoding="UTF-8"?>
<svg width="20px" height="20px" viewBox="0 0 20 20" version="1.1" xmlns="http://www.w3.org/2000/svg" xmlns:xlink="http://www.w3.org/1999/xlink">
    <!-- Generator: Sketch 52.4 (67378) - http://www.bohemiancoding.com/sketch -->
    <title>icon/编辑/搜索框 圆形</title>
    <desc>Created with Sketch.</desc>
    <g id="icon/编辑/搜索框-圆形" stroke="none" stroke-width="1" fill="none" fill-rule="evenodd">
        <g id="Group" transform="translate(13.778175, 13.778175) rotate(-45.000000) translate(-13.778175, -13.778175) translate(9.778175, 6.778175)" fill="#979797" fill-rule="nonzero">
            <path d="M4,9 C1.23857625,9 -1,6.76142375 -1,4 C-1,1.23857625 1.23857625,-1 4,-1 C6.76142375,-1 9,1.23857625 9,4 C9,6.76142375 6.76142375,9 4,9 Z M4,7 C5.65685425,7 7,5.65685425 7,4 C7,2.34314575 5.65685425,1 4,1 C2.34314575,1 1,2.34314575 1,4 C1,5.65685425 2.34314575,7 4,7 Z" id="Oval"></path>
            <rect id="Rectangle" x="3" y="8" width="2" height="6"></rect>
        </g>
        <path d="M20,9.5 L18,9.5 C18,7.01471863 15.9852814,5 13.5,5 L6.5,5 C4.01471863,5 2,7.01471863 2,9.5 C2,11.9852814 4.01471863,14 6.5,14 L6.5,16 C2.91014913,16 4.39629938e-16,13.0898509 0,9.5 C-4.39629938e-16,5.91014913 2.91014913,3 6.5,3 L13.5,3 C17.0898509,3 20,5.91014913 20,9.5 Z" id="Path" fill="#979797" fill-rule="nonzero"></path>
    </g>
</svg>