<?xml version="1.0" standalone="no"?><!DOCTYPE svg PUBLIC "-//W3C//DTD SVG 1.1//EN" "http://www.w3.org/Graphics/SVG/1.1/DTD/svg11.dtd"><svg t="1560069469264" class="icon" style="" viewBox="0 0 1024 1024" version="1.1" xmlns="http://www.w3.org/2000/svg" p-id="6329" xmlns:xlink="http://www.w3.org/1999/xlink" width="200" height="200"><defs><style type="text/css"></style></defs><path d="M429.44 768H832V192H192v576h129.76l-0.64 71.936L429.44 768z m-172.8 128h0.576l-0.576-0.576L257.216 832H193.76l-0.544-0.576V832H128V128h768v704H448.768l-192.704 128 0.576-64z" p-id="6330"></path><path d="M642.176 467.744A49.44 49.44 0 0 0 606.528 384c-19.584 0-40 7.296-52.896 18.496l-42.208 36.64-41.984-36.896c-12.544-11.04-32.544-18.24-52-18.24a49.44 49.44 0 0 0-31.84 87.264l2.464 2.24L512 589.6l126.624-118.56c0.8-0.672 1.6-1.408 3.04-2.816l0.48-0.512z m64.896 19.072l-4.704 7.328-14.08 17.984-0.48 0.512a114.144 114.144 0 0 1-7.584 7.072l-168.192 157.6-167.744-157.12A113.44 113.44 0 0 1 417.44 320c34.464 0 69.6 12.48 94.24 34.144 24.96-21.664 60.416-34.144 94.88-34.144a113.44 113.44 0 0 1 104.896 156.736l-4.384 10.08z" p-id="6331"></path></svg>