<?xml version="1.0" encoding="UTF-8"?>
<svg width="20px" height="20px" viewBox="0 0 20 20" version="1.1" xmlns="http://www.w3.org/2000/svg" xmlns:xlink="http://www.w3.org/1999/xlink">
    <!-- Generator: Sketch 52.4 (67378) - http://www.bohemiancoding.com/sketch -->
    <title>icon/编辑/横向滑动</title>
    <desc>Created with Sketch.</desc>
    <g id="icon/编辑/横向滑动" stroke="none" stroke-width="1" fill="none" fill-rule="evenodd">
        <path d="M1,2 L19,2 L19,18 L1,18 L1,2 Z M3,5 L3,13 L8,13 L8,5 L3,5 Z M10,5 L10,13 L15,13 L15,5 L10,5 Z M3,14 L3,15 L8,15 L8,14 L3,14 Z M10,14 L10,15 L15,15 L15,14 L10,14 Z M17,5 L17,13 L18,13 L18,5 L17,5 Z M17,14 L17,15 L18,15 L18,14 L17,14 Z" id="Combined-Shape" fill="#7D7E80"></path>
    </g>
</svg>