<?xml version="1.0" encoding="UTF-8"?>
<svg width="20px" height="20px" viewBox="0 0 20 20" version="1.1" xmlns="http://www.w3.org/2000/svg" xmlns:xlink="http://www.w3.org/1999/xlink">
    <!-- Generator: Sketch 52.4 (67378) - http://www.bohemiancoding.com/sketch -->
    <title>icon/编辑/商品分组样式二</title>
    <desc>Created with Sketch.</desc>
    <g id="icon/编辑/商品分组样式二" stroke="none" stroke-width="1" fill="none" fill-rule="evenodd">
        <path d="M5,7 C3.34314575,7 2,8.34314575 2,10 C2,11.6568542 3.34314575,13 5,13 L15,13 C16.6568542,13 18,11.6568542 18,10 C18,8.34314575 16.6568542,7 15,7 L5,7 Z M5,5 L15,5 C17.7614237,5 20,7.23857625 20,10 C20,12.7614237 17.7614237,15 15,15 L5,15 C2.23857625,15 3.38176876e-16,12.7614237 0,10 C-3.38176876e-16,7.23857625 2.23857625,5 5,5 Z" id="Rectangle" fill="#7D7E80" fill-rule="nonzero"></path>
        <rect id="Rectangle" fill="#7D7E80" fill-rule="nonzero" x="6" y="9" width="2" height="2"></rect>
        <rect id="Rectangle-Copy-2" fill="#7D7E80" fill-rule="nonzero" x="12" y="9" width="2" height="2"></rect>
        <rect id="Rectangle-Copy" fill="#7D7E80" fill-rule="nonzero" x="9" y="9" width="2" height="2"></rect>
    </g>
</svg>