<?xml version="1.0" encoding="UTF-8"?>
<svg width="20px" height="20px" viewBox="0 0 20 20" version="1.1" xmlns="http://www.w3.org/2000/svg" xmlns:xlink="http://www.w3.org/1999/xlink">
    <!-- Generator: Sketch 52.4 (67378) - http://www.bohemiancoding.com/sketch -->
    <title>icon/编辑/一行三个</title>
    <desc>Created with Sketch.</desc>
    <g id="icon/编辑/一行三个" stroke="none" stroke-width="1" fill="none" fill-rule="evenodd">
        <path d="M1,2 L19,2 L19,18 L1,18 L1,2 Z M3,5 L3,12 L7,12 L7,5 L3,5 Z M3,14 L3,15 L7,15 L7,14 L3,14 Z M8,14 L8,15 L12,15 L12,14 L8,14 Z M13,14 L13,15 L17,15 L17,14 L13,14 Z M8,5 L8,12 L12,12 L12,5 L8,5 Z M13,5 L13,12 L17,12 L17,5 L13,5 Z" id="Shape" fill="#7D7E80"></path>
    </g>
</svg>