<?xml version="1.0" encoding="UTF-8"?>
<svg width="20px" height="20px" viewBox="0 0 20 20" version="1.1" xmlns="http://www.w3.org/2000/svg" xmlns:xlink="http://www.w3.org/1999/xlink">
    <!-- Generator: Sketch 47.1 (45422) - http://www.bohemiancoding.com/sketch -->
    <title>类型/专栏@2x</title>
    <desc>Created with Sketch.</desc>
    <defs></defs>
    <g id="Symbols" stroke="none" stroke-width="1" fill="none" fill-rule="evenodd">
        <g id="类型/专栏">
            <g id="Group">
                <rect id="Rectangle-25" fill="#000000" opacity="0.600000024" x="0" y="0" width="20" height="20" rx="10"></rect>
                <path d="M6,4.5 L14,4.5 C14.5522847,4.5 15,4.94771525 15,5.5 L15,14.5 C15,15.0522847 14.5522847,15.5 14,15.5 L6,15.5 C5.44771525,15.5 5,15.0522847 5,14.5 L5,5.5 L5,5.5 C5,4.94771525 5.44771525,4.5 6,4.5 L6,4.5 Z M7,6.5 L7,7.5 L13,7.5 L13,6.5 L7,6.5 Z M7,9.5 L7,10.5 L13,10.5 L13,9.5 L7,9.5 Z M7,12.5 L7,13.5 L13,13.5 L13,12.5 L7,12.5 Z" id="Combined-Shape" fill="#FFFFFF"></path>
            </g>
        </g>
    </g>
</svg>