<?xml version="1.0" encoding="UTF-8"?>
<svg width="13px" height="11px" viewBox="0 0 13 11" version="1.1" xmlns="http://www.w3.org/2000/svg" xmlns:xlink="http://www.w3.org/1999/xlink">
    <!-- Generator: Sketch 52.4 (67378) - http://www.bohemiancoding.com/sketch -->
    <title>圆角-正序-线</title>
    <desc>Created with Sketch.</desc>
    <g id="------专栏" stroke="none" stroke-width="1" fill="none" fill-rule="evenodd">
        <g id="专栏-未购买-专栏目录" transform="translate(-317.000000, -337.000000)" fill="#323233" fill-rule="nonzero">
            <g id="活动-copy-3" transform="translate(0.000000, 320.000000)">
                <g id="圆角-正序-线" transform="translate(314.000000, 14.000000)">
                    <path d="M14.5,5.60443748 L13.3164332,6.78800427 C13.02354,7.08089749 12.5486663,7.08089749 12.255773,6.78800427 C11.9628798,6.49511105 11.9628798,6.02023732 12.255773,5.7273441 L14.6576043,3.32551282 C14.7610576,3.19248195 14.9083357,3.09522017 15.0777605,3.05540567 C15.3250914,2.99335711 15.5978819,3.05904534 15.7913069,3.25247036 C15.9704901,3.43165353 16.0400545,3.6789451 16,3.91101177 L16,13.2855339 C16,13.6997475 15.6642136,14.0355339 15.25,14.0355339 C14.8357864,14.0355339 14.5,13.6997475 14.5,13.2855339 L14.5,5.60443748 Z M3.75,4 L10.25,4 C10.6642136,4 11,4.33578644 11,4.75 C11,5.16421356 10.6642136,5.5 10.25,5.5 L3.75,5.5 C3.33578644,5.5 3,5.16421356 3,4.75 C3,4.33578644 3.33578644,4 3.75,4 Z M3.75,8 L10.25,8 C10.6642136,8 11,8.33578644 11,8.75 C11,9.16421356 10.6642136,9.5 10.25,9.5 L3.75,9.5 C3.33578644,9.5 3,9.16421356 3,8.75 C3,8.33578644 3.33578644,8 3.75,8 Z M3.75,12 L10.25,12 C10.6642136,12 11,12.3357864 11,12.75 C11,13.1642136 10.6642136,13.5 10.25,13.5 L3.75,13.5 C3.33578644,13.5 3,13.1642136 3,12.75 C3,12.3357864 3.33578644,12 3.75,12 Z" id="合并形状"></path>
                </g>
            </g>
        </g>
    </g>
</svg>