<?xml version="1.0" encoding="UTF-8"?>
<svg width="14px" height="11px" viewBox="0 0 14 11" version="1.1" xmlns="http://www.w3.org/2000/svg" xmlns:xlink="http://www.w3.org/1999/xlink">
    <!-- Generator: Sketch 52.4 (67378) - http://www.bohemiancoding.com/sketch -->
    <title>圆角-倒序-线</title>
    <desc>Created with Sketch.</desc>
    <g id="------专栏" stroke="none" stroke-width="1" fill="none" fill-rule="evenodd">
        <g id="专栏-已购买-专栏目录" transform="translate(-319.000000, -337.000000)" fill="#323233" fill-rule="nonzero">
            <g id="活动-copy-3" transform="translate(0.000000, 320.000000)">
                <g id="圆角-倒序-线" transform="translate(316.000000, 14.000000)">
                    <path d="M14.5109769,11.4638969 L14.9874369,10.9874369 C15.2803301,10.6945436 15.7552038,10.6945436 16.048097,10.9874369 C16.3409903,11.2803301 16.3409903,11.7552038 16.048097,12.048097 L14.3533725,13.7428215 C14.2499192,13.8758524 14.1026411,13.9731142 13.9332164,14.0129287 C13.6858854,14.0749772 13.4130949,14.009289 13.2196699,13.815864 C13.0404867,13.6366808 12.9709224,13.3893893 13.0109769,13.1573226 L13.0109769,3.78280045 C13.0109769,3.36858689 13.3467633,3.03280045 13.7609769,3.03280045 C14.1751904,3.03280045 14.5109769,3.36858689 14.5109769,3.78280045 L14.5109769,11.4638969 Z M3.75,4 L10.25,4 C10.6642136,4 11,4.33578644 11,4.75 C11,5.16421356 10.6642136,5.5 10.25,5.5 L3.75,5.5 C3.33578644,5.5 3,5.16421356 3,4.75 C3,4.33578644 3.33578644,4 3.75,4 Z M3.75,8 L10.25,8 C10.6642136,8 11,8.33578644 11,8.75 C11,9.16421356 10.6642136,9.5 10.25,9.5 L3.75,9.5 C3.33578644,9.5 3,9.16421356 3,8.75 C3,8.33578644 3.33578644,8 3.75,8 Z M3.75,12 L10.25,12 C10.6642136,12 11,12.3357864 11,12.75 C11,13.1642136 10.6642136,13.5 10.25,13.5 L3.75,13.5 C3.33578644,13.5 3,13.1642136 3,12.75 C3,12.3357864 3.33578644,12 3.75,12 Z" id="合并形状"></path>
                </g>
            </g>
        </g>
    </g>
</svg>