<?xml version="1.0" encoding="UTF-8"?>
<svg width="222px" height="194px" viewBox="0 0 222 194" version="1.1" xmlns="http://www.w3.org/2000/svg" xmlns:xlink="http://www.w3.org/1999/xlink">
    <!-- Generator: Sketch 49 (51002) - http://www.bohemiancoding.com/sketch -->
    <title>分享引导-书@1x</title>
    <desc>Created with Sketch.</desc>
    <defs>
        <linearGradient x1="101.114381%" y1="29.910009%" x2="101.11438%" y2="100%" id="linearGradient-1">
            <stop stop-color="#FFFFFF" stop-opacity="1.00424139" offset="0%"></stop>
            <stop stop-color="#FFFFFF" offset="0%"></stop>
            <stop stop-color="#FFFFFF" stop-opacity="0.80969769" offset="100%"></stop>
        </linearGradient>
        <linearGradient x1="100%" y1="41.6482717%" x2="0%" y2="41.6482728%" id="linearGradient-2">
            <stop stop-color="#FFFFFF" offset="0%"></stop>
            <stop stop-color="#FFFFFF" stop-opacity="0.510643116" offset="100%"></stop>
        </linearGradient>
        <linearGradient x1="30.1540832%" y1="100%" x2="100%" y2="0%" id="linearGradient-3">
            <stop stop-color="#FFFFFF" offset="0%"></stop>
            <stop stop-color="#FFFFFF" stop-opacity="0.587692482" offset="100%"></stop>
        </linearGradient>
        <linearGradient x1="50%" y1="0%" x2="50%" y2="83.7848774%" id="linearGradient-4">
            <stop stop-color="#FFFFFF" offset="0%"></stop>
            <stop stop-color="#FFFFFF" stop-opacity="0.80969769" offset="100%"></stop>
        </linearGradient>
        <linearGradient x1="50%" y1="0%" x2="66.6262681%" y2="100%" id="linearGradient-5">
            <stop stop-color="#FFFFFF" offset="0%"></stop>
            <stop stop-color="#FFFFFF" stop-opacity="0.80969769" offset="100%"></stop>
        </linearGradient>
    </defs>
    <g id="买家学员" stroke="none" stroke-width="1" fill="none" fill-rule="evenodd">
        <g id="直播间-邀请好友看直播" transform="translate(-115.000000, -79.000000)">
            <g id="分享引导-书" transform="translate(117.000000, 79.000000)">
                <path d="M155.756757,26 L134,47.7567568 C137.153153,52.8018018 140.306306,55.009009 143.459459,54.3783784 C144.720721,51.2252252 153.234234,43.972973 169,32.6216216 L155.756757,26 Z" id="Path-7" fill="url(#linearGradient-1)"></path>
                <path d="M128.514692,58.6901513 L121.144273,84.0771526 C127.695757,93.9043789 130.971499,101.820756 130.971499,107.826283 C130.971499,113.83181 130.971499,117.107552 130.971499,117.653509 C136.431069,106.734369 139.160854,96.634164 139.160854,87.3528947 C139.160854,78.0716254 135.612134,68.5173776 128.514692,58.6901513 Z" id="Path-6" fill="url(#linearGradient-2)" transform="translate(130.152563, 88.171830) rotate(-61.000000) translate(-130.152563, -88.171830) "></path>
                <path d="M197.5,54 L183,66 C186.666667,68.6666667 188.833333,71.8333333 189.5,75.5 C190.166667,79.1666667 189.166667,83.5 186.5,88.5 C191.833333,84.1666667 195.5,79.8333333 197.5,75.5 C199.5,71.1666667 199.5,64 197.5,54 Z" id="Path-8" fill="url(#linearGradient-3)"></path>
                <path d="M57.9238953,100.638298 C53.3821604,105.180033 42.7847791,115.777414 39,118.048282 C39,118.048282 52.6252046,136.215221 61.7086743,140 C61.7086743,140 70.0351882,124.860884 74.5769231,122.590016 C74.5769231,122.590016 61.7086743,108.964812 57.9238953,100.638298 Z" id="Path-5" fill="url(#linearGradient-4)"></path>
                <path d="M210.170213,0 C207.489362,2.68085106 201.234043,8.93617021 199,10.2765957 C199,10.2765957 207.042553,21 212.404255,23.2340426 C212.404255,23.2340426 217.319149,14.2978723 220,12.9574468 C220,12.9574468 212.404255,4.91489362 210.170213,0 Z" id="Path-5-Copy" fill="url(#linearGradient-4)"></path>
                <path d="M111.538462,115 C108.769231,117.769231 102.307692,124.230769 100,125.615385 C100,125.615385 108.307692,136.692308 113.846154,139 C113.846154,139 118.923077,129.769231 121.692308,128.384615 C121.692308,128.384615 113.846154,120.076923 111.538462,115 Z" id="Path-5-Copy-2" fill="url(#linearGradient-5)" transform="translate(110.846154, 127.000000) rotate(-105.000000) translate(-110.846154, -127.000000) "></path>
                <g id="Group-7" transform="translate(0.000000, 166.000000)">
                    <path d="M0,26 L58,20 C62,22.6666667 67,24 73,24 C79,24 83.6666667,22.6666667 87,20 L141,26 L138,17 C119.333333,13.6666667 97.6666667,14 73,18 C55.6666667,13.3333333 32.3333333,12.6666667 3,16 L0,26 Z" id="Path-2" fill="#FFFFFF"></path>
                    <g id="Group-5" transform="translate(4.000000, 0.000000)">
                        <path d="M77,21 C72.3333333,13 66.3333333,8 59,6 C51.6666667,4 33.6666667,2.66666667 5,2 L4,7 C32.6666667,7.66666667 50.6666667,8.66666667 58,10 C65.3333333,11.3333333 71.6666667,15 77,21 Z" id="Path-4" fill="#FFFFFF"></path>
                        <path d="M77,21 C73,15.6666667 67.3333333,12 60,10 C52.6666667,8 33.3333333,7.33333333 2,8 L0,15 C30.6666667,14.3333333 49.6666667,14.6666667 57,16 C64.3333333,17.3333333 71,19 77,21 Z" id="Path-4" fill="#FFFFFF"></path>
                        <path d="M75,22 C73,14 67,8.66666667 57,6 C47,3.33333333 30.3333333,1.33333333 7,0" id="Path-3" stroke="#FFFFFF"></path>
                    </g>
                    <g id="Group-5" transform="translate(98.500000, 12.000000) scale(-1, 1) translate(-98.500000, -12.000000) translate(60.000000, 1.000000)">
                        <path d="M77,21 C72.3333333,13 66.3333333,8 59,6 C51.6666667,4 33.6666667,2.66666667 5,2 L4,7 C32.6666667,7.66666667 50.6666667,8.66666667 58,10 C65.3333333,11.3333333 71.6666667,15 77,21 Z" id="Path-4" fill="#FFFFFF"></path>
                        <path d="M77,21 C73,15.6666667 67.3333333,12 60,10 C52.6666667,8 33.3333333,7.33333333 2,8 L0,15 C30.6666667,14.3333333 49.6666667,14.6666667 57,16 C64.3333333,17.3333333 71,19 77,21 Z" id="Path-4" fill="#FFFFFF"></path>
                        <path d="M75,22 C73,14 67,8.66666667 57,6 C47,3.33333333 30.3333333,1.33333333 7,0" id="Path-3" stroke="#FFFFFF"></path>
                    </g>
                    <path d="M0,26 L57,20 C61.6666667,22 67,23 73,23 C79,23 84,22 88,20 L141,26" id="Path-2" stroke="#AA724B" stroke-width="4" stroke-linecap="round" stroke-linejoin="round"></path>
                </g>
            </g>
        </g>
    </g>
</svg>