<?xml version="1.0" encoding="UTF-8"?>
<svg width="16px" height="14px" viewBox="0 0 16 14" version="1.1" xmlns="http://www.w3.org/2000/svg" xmlns:xlink="http://www.w3.org/1999/xlink">
    <!-- Generator: Sketch 52.4 (67378) - http://www.bohemiancoding.com/sketch -->
    <title>Combined Shape</title>
    <desc>Created with Sketch.</desc>
    <g id="Symbols" stroke="none" stroke-width="1" fill="none" fill-rule="evenodd">
        <g id="购买后卡片信息" transform="translate(-330.000000, -32.000000)" fill="#7D7E80" fill-rule="nonzero">
            <g id="圆角-类目-copy-2">
                <g transform="translate(328.000000, 29.000000)">
                    <path d="M3.88888889,5.55555556 C3.27523917,5.55555556 2.77777778,5.05809417 2.77777778,4.44444444 C2.77777778,3.83079472 3.27523917,3.33333333 3.88888889,3.33333333 C4.50253861,3.33333333 5,3.83079472 5,4.44444444 C5,5.05809417 4.50253861,5.55555556 3.88888889,5.55555556 Z M6.94444444,3.61111111 L16.3888889,3.61111111 C16.8491262,3.61111111 17.2222222,3.98420715 17.2222222,4.44444444 C17.2222222,4.90468174 16.8491262,5.27777778 16.3888889,5.27777778 L6.94444444,5.27777778 C6.48420715,5.27777778 6.11111111,4.90468174 6.11111111,4.44444444 C6.11111111,3.98420715 6.48420715,3.61111111 6.94444444,3.61111111 Z M6.94444444,9.16666667 L16.3888889,9.16666667 C16.8491262,9.16666667 17.2222222,9.53976271 17.2222222,10 C17.2222222,10.4602373 16.8491262,10.8333333 16.3888889,10.8333333 L6.94444444,10.8333333 C6.48420715,10.8333333 6.11111111,10.4602373 6.11111111,10 C6.11111111,9.53976271 6.48420715,9.16666667 6.94444444,9.16666667 Z M6.94444444,14.7222222 L16.3888889,14.7222222 C16.8491262,14.7222222 17.2222222,15.0953183 17.2222222,15.5555556 C17.2222222,16.0157928 16.8491262,16.3888889 16.3888889,16.3888889 L6.94444444,16.3888889 C6.48420715,16.3888889 6.11111111,16.0157928 6.11111111,15.5555556 C6.11111111,15.0953183 6.48420715,14.7222222 6.94444444,14.7222222 Z M3.88888889,11.1111111 C3.27523917,11.1111111 2.77777778,10.6136497 2.77777778,10 C2.77777778,9.38635028 3.27523917,8.88888889 3.88888889,8.88888889 C4.50253861,8.88888889 5,9.38635028 5,10 C5,10.6136497 4.50253861,11.1111111 3.88888889,11.1111111 Z M3.88888889,16.6666667 C3.27523917,16.6666667 2.77777778,16.1692053 2.77777778,15.5555556 C2.77777778,14.9419058 3.27523917,14.4444444 3.88888889,14.4444444 C4.50253861,14.4444444 5,14.9419058 5,15.5555556 C5,16.1692053 4.50253861,16.6666667 3.88888889,16.6666667 Z" id="Combined-Shape"></path>
                </g>
            </g>
        </g>
    </g>
</svg>