<?xml version="1.0" encoding="UTF-8"?>
<svg width="20px" height="20px" viewBox="0 0 20 20" version="1.1" xmlns="http://www.w3.org/2000/svg" xmlns:xlink="http://www.w3.org/1999/xlink">
    <!-- Generator: Sketch 46.2 (44496) - http://www.bohemiancoding.com/sketch -->
    <title>类型/图文</title>
    <desc>Created with Sketch.</desc>
    <defs></defs>
    <g id="Symbols" stroke="none" stroke-width="1" fill="none" fill-rule="evenodd">
        <g id="类型/图文">
            <rect id="Rectangle-25" fill="#000000" opacity="0.600000024" x="0" y="0" width="20" height="20" rx="10"></rect>
            <path d="M5.83333333,5 L14.1666667,5 L14.1666667,5 C14.626904,5 15,5.37309604 15,5.83333333 L15,14.1666667 C15,14.626904 14.626904,15 14.1666667,15 L5.83333333,15 C5.37309604,15 5,14.626904 5,14.1666667 L5,5.83333333 L5,5.83333333 C5,5.37309604 5.37309604,5 5.83333333,5 L5.83333333,5 Z M5.83333333,10.8333333 L5.83333333,11.6666667 L14.1666667,11.6666667 L14.1666667,10.8333333 L5.83333333,10.8333333 Z M5.83333333,12.5 L5.83333333,13.3333333 L10,13.3333333 L10,12.5 L5.83333333,12.5 Z M5.83333333,5.83333333 L5.83333333,10 L14.1666667,10 L14.1666667,5.83333333 L5.83333333,5.83333333 Z" id="Combined-Shape" fill="#FFFFFF"></path>
        </g>
    </g>
</svg>