<?xml version="1.0" encoding="UTF-8"?>
<svg width="14px" height="14px" viewBox="0 0 14 14" version="1.1" xmlns="http://www.w3.org/2000/svg" xmlns:xlink="http://www.w3.org/1999/xlink">
    <!-- Generator: Sketch 49 (51002) - http://www.bohemiancoding.com/sketch -->
    <title>更新</title>
    <desc>Created with Sketch.</desc>
    <defs></defs>
    <g id="商家H5" stroke="none" stroke-width="1" fill="none" fill-rule="evenodd">
        <g id="扫描PC二维码成为管理员" transform="translate(-346.000000, -157.000000)" fill="#666666">
            <g id="Group-3-Copy" transform="translate(0.000000, 138.000000)">
                <g id="更新" transform="translate(346.000000, 19.000000)">
                    <path d="M0.289878679,9 L1.34141142,9 C2.16508423,11.3303847 4.38756235,13 7,13 C9.97299629,13 12.4409635,10.8377133 12.9170416,8 L13.9291111,8 C13.4438815,11.3922941 10.5264719,14 7,14 C3.82897936,14 1.15042787,11.8914889 0.289878679,9 Z M0.0708888585,6 C0.556118519,2.60770586 3.47352809,0 7,0 C10.1710206,0 12.8495721,2.10851105 13.7101213,5 L12.6585886,5 C11.8349158,2.66961525 9.61243765,1 7,1 C4.02700371,1 1.55903653,3.16228666 1.08295844,6 L0.0708888585,6 Z" id="Combined-Shape" fill-rule="nonzero"></path>
                    <rect id="Path" x="1" y="5" width="4" height="1"></rect>
                    <polygon id="Path" transform="translate(0.500000, 3.500000) rotate(-90.000000) translate(-0.500000, -3.500000) " points="-2 3 3 3 3 4 -2 4"></polygon>
                    <polygon id="Path-Copy" transform="translate(13.500000, 10.500000) rotate(-90.000000) translate(-13.500000, -10.500000) " points="11 10 16 10 16 11 11 11"></polygon>
                    <rect id="Path" x="9" y="8" width="4" height="1"></rect>
                </g>
            </g>
        </g>
    </g>
</svg>