<?xml version="1.0" encoding="UTF-8"?>
<svg width="30px" height="30px" viewBox="0 0 30 30" version="1.1" xmlns="http://www.w3.org/2000/svg" xmlns:xlink="http://www.w3.org/1999/xlink">
    <!-- Generator: Sketch 49 (51002) - http://www.bohemiancoding.com/sketch -->
    <title>Group 7</title>
    <desc>Created with Sketch.</desc>
    <defs>
        <circle id="path-1" cx="15" cy="15" r="15"></circle>
        <path d="M9,10 L9,7 C9,6.44771525 9.44771525,6 10,6 L24,6 C24.5522847,6 25,6.44771525 25,7 L25,17 C25,17.5522847 24.5522847,18 24,18 L21,18" id="path-2"></path>
    </defs>
    <g id="Symbols" stroke="none" stroke-width="1" fill="none" fill-rule="evenodd">
        <g id="bar/2" transform="translate(-295.000000, -10.000000)">
            <g id="Group-15">
                <g id="Group-7" transform="translate(295.000000, 10.000000)">
                    <g id="Oval-3-Copy">
                        <use fill="#FFFFFF" fill-rule="evenodd" xlink:href="#path-1"></use>
                        <circle stroke="#666666" stroke-width="0.5" cx="15" cy="15" r="14.75"></circle>
                    </g>
                    <g id="Rectangle-7">
                        <use fill="#FFFFFF" fill-rule="evenodd" xlink:href="#path-2"></use>
                        <path stroke="#666666" stroke-width="1" d="M9.5,9.73240812 L21.1513878,17.5 L24,17.5 C24.2761424,17.5 24.5,17.2761424 24.5,17 L24.5,7 C24.5,6.72385763 24.2761424,6.5 24,6.5 L10,6.5 C9.72385763,6.5 9.5,6.72385763 9.5,7 L9.5,9.73240812 Z"></path>
                    </g>
                    <path d="M6,10 L20,10 C20.5522847,10 21,10.4477153 21,11 L21,21 C21,21.5522847 20.5522847,22 20,22 L12,22 L9.78086881,24.773914 C9.43585926,25.2051759 8.80656689,25.2750973 8.37530495,24.9300878 C8.13808972,24.7403156 8,24.4530027 8,24.1492189 L8,22 L6,22 C5.44771525,22 5,21.5522847 5,21 L5,11 C5,10.4477153 5.44771525,10 6,10 Z" id="Rectangle-6" fill="#666666"></path>
                    <circle id="Oval-5" fill="#FFFFFF" cx="10" cy="16" r="1"></circle>
                    <circle id="Oval-5-Copy" fill="#FFFFFF" cx="13" cy="16" r="1"></circle>
                    <circle id="Oval-5-Copy-2" fill="#FFFFFF" cx="16" cy="16" r="1"></circle>
                </g>
            </g>
        </g>
    </g>
</svg>