<?xml version="1.0" encoding="UTF-8"?>
<svg width="30px" height="30px" viewBox="0 0 30 30" version="1.1" xmlns="http://www.w3.org/2000/svg" xmlns:xlink="http://www.w3.org/1999/xlink">
    <!-- Generator: Sketch 49 (51002) - http://www.bohemiancoding.com/sketch -->
    <title>Group 14</title>
    <desc>Created with Sketch.</desc>
    <defs>
        <rect id="path-1" x="0" y="0" width="30" height="30" rx="15"></rect>
        <rect id="path-2" x="0" y="0" width="20" height="14" rx="1"></rect>
    </defs>
    <g id="Symbols" stroke="none" stroke-width="1" fill="none" fill-rule="evenodd">
        <g id="bar" transform="translate(-295.000000, -10.000000)">
            <g id="Group-15">
                <g id="Group-14" transform="translate(295.000000, 10.000000)">
                    <g id="Rectangle-Copy-2">
                        <use fill="#FFFFFF" fill-rule="evenodd" xlink:href="#path-1"></use>
                        <rect stroke="#666666" stroke-width="0.5" x="0.25" y="0.25" width="29.5" height="29.5" rx="14.75"></rect>
                    </g>
                    <g id="Triangle-+-Triangle-Copy-Mask" transform="translate(5.000000, 8.000000)">
                        <mask id="mask-3" fill="white">
                            <use xlink:href="#path-2"></use>
                        </mask>
                        <g id="Mask">
                            <use fill="#FFFFFF" fill-rule="evenodd" xlink:href="#path-2"></use>
                            <rect stroke="#666666" stroke-width="1" x="0.5" y="0.5" width="19" height="13" rx="1"></rect>
                        </g>
                        <path d="M15.3073911,3.10485101 L22.8380648,13.4099834 C23.163922,13.8558932 23.0666001,14.481534 22.6206903,14.8073911 C22.4494243,14.9325471 22.2427964,15 22.0306737,15 L6.96932632,15 C6.41704157,15 5.96932632,14.5522847 5.96932632,14 C5.96932632,13.7878773 6.03677927,13.5812494 6.1619352,13.4099834 L13.6926089,3.10485101 C14.018466,2.65894121 14.6441068,2.56161931 15.0900166,2.88747648 C15.1732456,2.94829765 15.2465699,3.02162203 15.3073911,3.10485101 Z" id="Triangle-Copy" fill="#666666" mask="url(#mask-3)"></path>
                        <path d="M8.62572889,5.37660357 L12.3994005,13.6786812 C12.6279376,14.1814627 12.4056185,14.7743136 11.902837,15.0028506 C11.7920094,15.0532268 11.6729148,15.0829428 11.5514124,15.0905367 L-0.524336938,15.8452711 C-1.07554616,15.8797216 -1.55031723,15.460806 -1.5847678,14.9095968 C-1.60172194,14.6383305 -1.50752831,14.3718491 -1.32386936,14.1714939 L6.97820828,5.11468188 C7.35140068,4.70756289 7.98396805,4.68005996 8.39108704,5.05325237 C8.49025461,5.14415597 8.57006098,5.25413417 8.62572889,5.37660357 Z" id="Triangle" fill="#FFFFFF" mask="url(#mask-3)"></path>
                        <path d="M6.30739112,5.10485101 L13.8380648,15.4099834 C14.163922,15.8558932 14.0666001,16.481534 13.6206903,16.8073911 C13.4494243,16.9325471 13.2427964,17 13.0306737,17 L-2.03067368,17 C-2.58295843,17 -3.03067368,16.5522847 -3.03067368,16 C-3.03067368,15.7878773 -2.96322073,15.5812494 -2.8380648,15.4099834 L4.69260888,5.10485101 C5.01846604,4.65894121 5.64410679,4.56161931 6.09001659,4.88747648 C6.17324556,4.94829765 6.24656995,5.02162203 6.30739112,5.10485101 Z" id="Triangle" fill="#666666" mask="url(#mask-3)"></path>
                    </g>
                </g>
            </g>
        </g>
    </g>
</svg>