<?xml version="1.0" encoding="UTF-8"?>
<svg width="20px" height="20px" viewBox="0 0 20 20" version="1.1" xmlns="http://www.w3.org/2000/svg" xmlns:xlink="http://www.w3.org/1999/xlink">
    <!-- Generator: Sketch 47.1 (45422) - http://www.bohemiancoding.com/sketch -->
    <title>类型/音频</title>
    <desc>Created with Sketch.</desc>
    <defs></defs>
    <g id="Symbols" stroke="none" stroke-width="1" fill="none" fill-rule="evenodd">
        <g id="类型/音频">
            <g id="Group">
                <rect id="Rectangle-25" fill="#000000" opacity="0.600000024" x="0" y="0" width="20" height="20" rx="10"></rect>
                <path d="M14.1666667,15 L14.1666667,10 C14.1666667,7.57403166 12.9221501,5.83333333 10,5.83333333 C7.07784986,5.83333333 5.83333333,7.57403166 5.83333333,10 L5.83333333,15 L5,15 L5,10 C5,8.15905083 5.83333333,5 10,5 C14.1666667,5 15,8.15905083 15,10 L15,15 L14.1666667,15 Z M15,15 L14.1666667,15 L14.1666667,10 C14.1666667,7.57403166 12.9221501,5.83333333 10,5.83333333 C7.07784986,5.83333333 5.83333333,7.57403166 5.83333333,10 L5.83333333,15 L5,15 L5,10 C5,8.15905083 5.83333333,5 10,5 C14.1666667,5 15,8.15905083 15,10 L15,15 Z" id="Rectangle" fill="#FFFFFF" fill-rule="nonzero"></path>
                <path d="M5.83333333,10.8333333 L6.66666667,10.8333333 L6.66666667,10.8333333 C7.12690396,10.8333333 7.5,11.2064294 7.5,11.6666667 L7.5,14.1666667 L7.5,14.1666667 C7.5,14.626904 7.12690396,15 6.66666667,15 L5.83333333,15 L5.83333333,10.8333333 Z" id="Rectangle-2" fill="#FFFFFF"></path>
                <path d="M13.3333333,10.8333333 L14.1666667,10.8333333 L14.1666667,15 L13.3333333,15 L13.3333333,15 C12.873096,15 12.5,14.626904 12.5,14.1666667 L12.5,11.6666667 L12.5,11.6666667 C12.5,11.2064294 12.873096,10.8333333 13.3333333,10.8333333 Z" id="Rectangle-2-Copy" fill="#FFFFFF"></path>
            </g>
        </g>
    </g>
</svg>