<?xml version="1.0" encoding="UTF-8"?>
<svg width="22px" height="22px" viewBox="0 0 22 22" version="1.1" xmlns="http://www.w3.org/2000/svg" xmlns:xlink="http://www.w3.org/1999/xlink">
    <!-- Generator: Sketch 49.2 (51160) - http://www.bohemiancoding.com/sketch -->
    <desc>Created with Sketch.</desc>
    <defs>
        <filter x="-7.6%" y="-23.3%" width="115.2%" height="153.3%" filterUnits="objectBoundingBox" id="filter-1">
            <feOffset dx="0" dy="1" in="SourceAlpha" result="shadowOffsetOuter1"></feOffset>
            <feGaussianBlur stdDeviation="2.5" in="shadowOffsetOuter1" result="shadowBlurOuter1"></feGaussianBlur>
            <feColorMatrix values="0 0 0 0 0   0 0 0 0 0   0 0 0 0 0  0 0 0 0.12 0" type="matrix" in="shadowBlurOuter1" result="shadowMatrixOuter1"></feColorMatrix>
            <feMerge>
                <feMergeNode in="shadowMatrixOuter1"></feMergeNode>
                <feMergeNode in="SourceGraphic"></feMergeNode>
            </feMerge>
        </filter>
    </defs>
    <g id="专栏分享" stroke="none" stroke-width="1" fill="none" fill-rule="evenodd">
        <g id="内容" transform="translate(-275.000000, -573.000000)">
            <g id="Group" filter="url(#filter-1)" transform="translate(270.000000, 568.000000)">
                <g id="Group-11" transform="translate(10.000000, 9.000000)">
                    <rect id="Rectangle-13" fill="#FF6363" x="0" y="2.76923077" width="12" height="8.57142857" rx="0.857142857"></rect>
                    <rect id="Rectangle-14" fill="#FFBBBB" x="1.84615385" y="0" width="8.30769231" height="8.30769231" rx="0.923076923"></rect>
                    <path d="M0,3.42857143 L5.92207106,7.95795001 L12,3.42857143 L12,11.1428571 C12,11.6162441 11.6162441,12 11.1428571,12 L0.857142857,12 C0.383755929,12 -2.75093729e-16,11.6162441 -3.33066907e-16,11.1428571 L0,3.42857143 Z" id="Path-7" fill="#FF6363"></path>
                    <path d="M7.84615385,2.95507825 C7.84615385,2.34356845 7.36304993,1.84615385 6.77028075,1.84615385 C6.47739851,1.84615385 6.200347,1.97177317 6.00018627,2.18583589 C5.79929426,1.97177317 5.52222435,1.84615385 5.22971925,1.84615385 C4.63659133,1.84615385 4.15384615,2.3432165 4.15384615,2.95507825 C4.15384615,2.9756448 4.15567667,2.9940455 4.15753018,3.00885451 C4.15715304,3.01391267 4.15679429,3.01860083 4.15679429,3.02401095 C4.15679429,3.13230346 4.18327236,3.25106426 4.23516145,3.37777553 C4.23699196,3.38246369 4.23846373,3.3867999 4.24031724,3.39076612 C4.56814022,4.17192065 5.83019223,5.07037855 5.88391184,5.11190421 C5.91739921,5.13752893 5.95676446,5.14979757 5.99686559,5.14979757 C6.03734387,5.14979757 6.07708166,5.13680698 6.11093237,5.11081226 C6.15692518,5.07508476 7.23315702,4.3058424 7.66070622,3.57739022 C7.67689569,3.55283489 7.68904239,3.52902408 7.70007147,3.50843496 C7.70339675,3.50195095 7.70632189,3.49544888 7.71000592,3.48894231 L7.71148229,3.48606804 C7.71295406,3.48353219 7.71442583,3.48100988 7.71626094,3.47884403 C7.74202152,3.42938594 7.76225376,3.38319015 7.77843863,3.33842022 C7.82260093,3.22291723 7.84467748,3.12038677 7.84467748,3.02438095 C7.84467748,3.01715693 7.84430034,3.01029841 7.84394159,3.00488829 C7.84467748,2.99224965 7.84615385,2.9752748 7.84615385,2.95507825" id="Fill-1" fill="#FFFFFF"></path>
                </g>
            </g>
        </g>
    </g>
</svg>
