<?xml version="1.0" encoding="UTF-8"?>
<svg width="93px" height="89px" viewBox="0 0 93 89" version="1.1" xmlns="http://www.w3.org/2000/svg" xmlns:xlink="http://www.w3.org/1999/xlink">
    <!-- Generator: Sketch 52.4 (67378) - http://www.bohemiancoding.com/sketch -->
    <title>插图/2</title>
    <desc>Created with Sketch.</desc>
    <defs>
        <linearGradient x1="50%" y1="0%" x2="50%" y2="100%" id="linearGradient-1">
            <stop stop-color="#E4E4E4" offset="0%"></stop>
            <stop stop-color="#FFFFFF" stop-opacity="0" offset="100%"></stop>
        </linearGradient>
        <linearGradient x1="50%" y1="0%" x2="50%" y2="100%" id="linearGradient-2">
            <stop stop-color="#E4E4E4" offset="0%"></stop>
            <stop stop-color="#FFFFFF" offset="100%"></stop>
        </linearGradient>
        <linearGradient x1="50%" y1="0%" x2="50%" y2="100%" id="linearGradient-3">
            <stop stop-color="#FBFBFB" offset="0%"></stop>
            <stop stop-color="#FFFFFF" offset="100%"></stop>
        </linearGradient>
        <linearGradient x1="100%" y1="100%" x2="50%" y2="50%" id="linearGradient-4">
            <stop stop-color="#F4F4F4" offset="0%"></stop>
            <stop stop-color="#E5E5E5" offset="100%"></stop>
        </linearGradient>
        <linearGradient x1="50%" y1="50%" x2="95.1108632%" y2="100%" id="linearGradient-5">
            <stop stop-color="#FFFFFF" offset="0%"></stop>
            <stop stop-color="#F2F2F2" offset="100%"></stop>
        </linearGradient>
    </defs>
    <g id="------专栏" stroke="none" stroke-width="1" fill="none" fill-rule="evenodd">
        <g id="专栏-目录-空" transform="translate(-145.000000, -413.000000)">
            <g id="插图/2" transform="translate(138.000000, 409.000000)">
                <rect x="0" y="0" width="100" height="100"></rect>
                <ellipse id="Oval-2-Copy" fill="url(#linearGradient-1)" cx="50" cy="89.5833333" rx="25" ry="3.33333333"></ellipse>
                <ellipse id="Oval-2-Copy-2" fill="url(#linearGradient-2)" cx="18.75" cy="89.7916667" rx="2.08333333" ry="1"></ellipse>
                <path d="M20.5708029,10.4471304 L31.2037595,12.2001786 L9.22146685,12.2001786 L9.22146685,12.1947431 C8.25852883,12.1214912 7.5,11.3169556 7.5,10.3352562 C7.5,9.30528799 8.33495421,8.47033379 9.36492242,8.47033379 C9.41677445,8.47033379 9.46813224,8.47244994 9.51891411,8.47660059 C9.51193037,8.37978498 9.50837799,8.28201867 9.50837799,8.18342265 C9.50837799,5.96502957 11.3067409,4.16666667 13.525134,4.16666667 C15.2285844,4.16666667 16.684371,5.22704131 17.2684329,6.72372955 C17.6107922,6.5560745 17.9957165,6.4619558 18.4026234,6.4619558 C19.8287332,6.4619558 20.9848236,7.61804624 20.9848236,9.04415607 C20.9848236,9.56143432 20.8327219,10.0431873 20.5708029,10.4471304 Z" id="Combined-Shape-Copy" fill="#F8F9F9"></path>
                <path d="M90.4649406,46.8789778 L99.9949179,48.4501786 L80.2928954,48.4501786 L80.2928954,48.445307 C79.429845,48.3796536 78.75,47.6585742 78.75,46.7787086 C78.75,45.8555812 79.4983426,45.1072385 80.42147,45.1072385 C80.4679434,45.1072385 80.5139737,45.1091352 80.5594878,45.1128553 C80.5532285,45.0260826 80.5500447,44.9384578 80.5500447,44.8500893 C80.5500447,42.8618149 82.1618595,41.25 84.150134,41.25 C85.6768818,41.25 86.9816566,42.2003797 87.5051325,43.5418133 C87.8119782,43.3915495 88.1569734,43.3071939 88.521671,43.3071939 C89.7998474,43.3071939 90.8360141,44.3433606 90.8360141,45.621537 C90.8360141,46.0851569 90.6996902,46.5169366 90.4649406,46.8789778 Z" id="Combined-Shape-Copy-2" fill="#F8F9F9" opacity="0.560000002"></path>
                <g id="Group-4" transform="translate(25.000000, 12.083333)">
                    <rect id="Rectangle-22" fill="#6D7680" opacity="0.300000012" x="0" y="6.66666667" width="50" height="62.5" rx="0.833333333"></rect>
                    <path d="M2.5,63.75 L47.5,63.75 L47.5,65.4166667 C47.5,65.876904 47.126904,66.25 46.6666667,66.25 L3.33333333,66.25 C2.87309604,66.25 2.5,65.876904 2.5,65.4166667 L2.5,63.75 Z" id="Rectangle-24" fill="#555C63" opacity="0.200000003"></path>
                    <rect id="Rectangle-22" fill="#FFFFFF" x="2.5" y="8.75" width="45" height="56.6666667" rx="0.833333333"></rect>
                    <rect id="Rectangle-3" fill="#F5F5F5" x="5.83333333" y="19.5833333" width="13.3333333" height="13.3333333"></rect>
                    <rect id="Rectangle-3-Copy-3" fill="url(#linearGradient-3)" x="5.83333333" y="36.25" width="38.3333333" height="13.3333333"></rect>
                    <rect id="Rectangle-3-Copy" fill="#F5F5F5" x="22.5" y="22.0833333" width="21.6666667" height="2.5"></rect>
                    <rect id="Rectangle-3-Copy-2" fill="#F5F5F5" x="22.5" y="27.9166667" width="21.6666667" height="2.5"></rect>
                    <path d="M3.33333333,8.75 L46.6666667,8.75 C47.126904,8.75 47.5,9.12309604 47.5,9.58333333 L47.5,16.25 L2.5,16.25 L2.5,9.58333333 C2.5,9.12309604 2.87309604,8.75 3.33333333,8.75 Z" id="Rectangle" fill="#F5F5F5"></path>
                    <path d="M47.5,52.0833333 L47.5,64.5833333 C47.5,65.0435706 47.126904,65.4166667 46.6666667,65.4166667 L34.1666667,65.4166667 L47.5,52.0833333 Z" id="Rectangle-6" fill="url(#linearGradient-4)"></path>
                    <polygon id="Rectangle-6" fill="url(#linearGradient-5)" transform="translate(40.833333, 58.750000) rotate(-180.000000) translate(-40.833333, -58.750000) " points="47.5 52.0833333 47.5 65.4166667 34.1666667 65.4166667"></polygon>
                    <path d="M22.5112108,4.58333333 C22.5037907,4.50099282 22.5,4.41760576 22.5,4.33333333 L22.5,2.75 C22.5,1.23121694 23.7312169,2.78995922e-16 25.25,0 C26.7687831,-2.78995922e-16 28,1.23121694 28,2.75 L28,4.33333333 C28,4.41760576 27.9962093,4.50099282 27.9887892,4.58333333 L34.1666667,4.58333333 C34.626904,4.58333333 35,4.95642938 35,5.41666667 L35,8.75 C35,9.21023729 34.626904,9.58333333 34.1666667,9.58333333 L15.8333333,9.58333333 C15.373096,9.58333333 15,9.21023729 15,8.75 L15,5.41666667 C15,4.95642938 15.373096,4.58333333 15.8333333,4.58333333 L22.5112108,4.58333333 Z" id="Combined-Shape" fill="#AAABAC"></path>
                    <circle id="Oval-2" stroke="#7C7E7F" stroke-width="0.5" fill="#FFFFFF" cx="25" cy="2.5" r="1.25"></circle>
                </g>
                <g id="Group" transform="translate(17.500000, 41.250000)">
                    <path d="M0.833333333,0 L2.5,0 C2.96023729,-8.45442189e-17 3.33333333,0.373096042 3.33333333,0.833333333 L3.33333333,36.6666667 L0,36.6666667 L1.11022302e-16,0.833333333 C5.46594899e-17,0.373096042 0.373096042,2.41601257e-15 0.833333333,2.33146835e-15 Z" id="Rectangle-2" fill="#AAABAC"></path>
                    <polygon id="Triangle" fill="#878787" points="1.66666667 40 0 36.6666667 3.33333333 36.6666667"></polygon>
                </g>
            </g>
        </g>
    </g>
</svg>