<?xml version="1.0" encoding="UTF-8"?>
<svg width="24px" height="27px" viewBox="0 0 24 27" version="1.1" xmlns="http://www.w3.org/2000/svg" xmlns:xlink="http://www.w3.org/1999/xlink">
    <!-- Generator: Sketch 52.4 (67378) - http://www.bohemiancoding.com/sketch -->
    <title>replay</title>
    <desc>Created with Sketch.</desc>
    <g id="------视频" stroke="none" stroke-width="1" fill="none" fill-rule="evenodd">
        <g id="备注1" transform="translate(-1064.000000, -1069.000000)" fill="#FFFFFF" fill-rule="nonzero">
            <g id="分组" transform="translate(888.000000, 999.000000)">
                <g id="圆角-服务保障-copy-2" transform="translate(173.000000, 70.000000)">
                    <g id="replay" transform="translate(3.000000, 0.000000)">
                        <path d="M21.5369186,16.6662985 C21.545353,16.5910649 21.5627709,16.515623 21.5898087,16.4413372 C21.7734542,15.9367754 22.3313565,15.6766213 22.8359184,15.8602668 C23.3404802,16.0439123 23.6006343,16.6018145 23.4169888,17.1063764 C23.3132692,17.7415582 23.1429831,18.3708675 22.9163962,18.9934101 C20.7126502,25.0481523 14.0178228,28.1700016 7.96308058,25.9662557 C1.90833836,23.7625097 -1.21351094,17.0676823 0.990235005,11.0129401 C3.19398095,4.95819789 9.88880837,1.83634859 15.9435506,4.04009453 C16.4481124,4.22374003 16.7082665,4.78164231 16.5246211,5.28620416 C16.3409756,5.79076601 15.7830733,6.05092012 15.2785114,5.86727463 C10.2328929,4.03081968 4.65387005,6.63236076 2.8174151,11.6779793 C0.98096015,16.7235978 3.58250123,22.3026206 8.62811974,24.1390756 C13.6737383,25.9755305 19.2527611,23.3739895 21.0892161,18.3283709 C21.2768539,17.8128401 21.4197286,17.2880064 21.5178242,16.7575041 C21.5235027,16.7267949 21.5298739,16.6963886 21.5369186,16.6662985 Z" id="Combined-Shape"></path>
                        <path d="M16.8600419,2.03774984 L20.1933752,7.03774984 C20.5625723,7.59154544 20.1655795,8.33333333 19.5,8.33333333 L12.8333333,8.33333333 C12.1677538,8.33333333 11.770761,7.59154544 12.1399581,7.03774984 L15.4732914,2.03774984 C15.8031431,1.54297228 16.5301902,1.54297228 16.8600419,2.03774984 Z" id="三角形" transform="translate(16.166667, 5.000000) rotate(90.000000) translate(-16.166667, -5.000000) "></path>
                    </g>
                </g>
            </g>
        </g>
    </g>
</svg>