<?xml version="1.0" encoding="UTF-8"?>
<svg width="24px" height="24px" viewBox="0 0 24 24" version="1.1" xmlns="http://www.w3.org/2000/svg" xmlns:xlink="http://www.w3.org/1999/xlink">
    <!-- Generator: Sketch 52.4 (67378) - http://www.bohemiancoding.com/sketch -->
    <title>video-btn-shrink</title>
    <desc>Created with Sketch.</desc>
    <g id="------视频" stroke="none" stroke-width="1" fill="none" fill-rule="evenodd">
        <g id="备注1" transform="translate(-1957.000000, -1708.000000)" fill="#FFFFFF">
            <g id="分组-17" transform="translate(1339.000000, 1380.000000)">
                <g id="圆角-全屏-线-copy" transform="translate(615.000000, 325.000000)">
                    <g id="video-btn-shrink" transform="translate(3.000000, 3.000000)">
                        <path d="M2,2 L2,22 L22,22 L22,2 L2,2 Z M2,0.333333333 L22,0.333333333 C22.9204746,0.333333333 23.6666667,1.07952542 23.6666667,2 L23.6666667,22 C23.6666667,22.9204746 22.9204746,23.6666667 22,23.6666667 L2,23.6666667 C1.07952542,23.6666667 0.333333333,22.9204746 0.333333333,22 L0.333333333,2 C0.333333333,1.07952542 1.07952542,0.333333333 2,0.333333333 Z" id="Rectangle-7" fill-rule="nonzero"></path>
                        <g id="Group-2" stroke-width="1" fill-rule="evenodd" transform="translate(17.000000, 7.000000) scale(-1, -1) translate(-17.000000, -7.000000) translate(13.666667, 3.666667)">
                            <rect id="Rectangle-55" x="0" y="0" width="6.66666667" height="1.66666667" rx="0.833333333"></rect>
                            <rect id="Rectangle-9" x="5" y="0" width="1.66666667" height="6.66666667" rx="0.833333333"></rect>
                            <path d="M1.42258898,6.42258898 C1.09715207,6.74802589 0.569514592,6.74802589 0.244077682,6.42258898 C-0.0813592274,6.09715207 -0.0813592274,5.56951459 0.244077682,5.24407768 L5.24407768,0.244077682 C5.56951459,-0.0813592274 6.09715207,-0.0813592274 6.42258898,0.244077682 C6.74802589,0.569514592 6.74802589,1.09715207 6.42258898,1.42258898 L1.42258898,6.42258898 Z" id="Path-23" fill-rule="nonzero"></path>
                        </g>
                        <g id="Group-2-Copy" stroke-width="1" fill-rule="evenodd" transform="translate(3.666667, 13.666667)">
                            <rect id="Rectangle-55" x="0" y="0" width="6.66666667" height="1.66666667" rx="0.833333333"></rect>
                            <rect id="Rectangle-9" x="5" y="0" width="1.66666667" height="6.66666667" rx="0.833333333"></rect>
                            <path d="M1.42258898,6.42258898 C1.09715207,6.74802589 0.569514592,6.74802589 0.244077682,6.42258898 C-0.0813592274,6.09715207 -0.0813592274,5.56951459 0.244077682,5.24407768 L5.24407768,0.244077682 C5.56951459,-0.0813592274 6.09715207,-0.0813592274 6.42258898,0.244077682 C6.74802589,0.569514592 6.74802589,1.09715207 6.42258898,1.42258898 L1.42258898,6.42258898 Z" id="Path-23" fill-rule="nonzero"></path>
                        </g>
                    </g>
                </g>
            </g>
        </g>
    </g>
</svg>