<?xml version="1.0" encoding="UTF-8"?>
<svg width="18px" height="18px" viewBox="0 0 18 18" version="1.1" xmlns="http://www.w3.org/2000/svg" xmlns:xlink="http://www.w3.org/1999/xlink">
    <!-- Generator: Sketch 52.4 (67378) - http://www.bohemiancoding.com/sketch -->
    <title>video-btn-grow</title>
    <desc>Created with Sketch.</desc>
    <g id="------视频" stroke="none" stroke-width="1" fill="none" fill-rule="evenodd">
        <g id="备注1" transform="translate(-1231.000000, -1723.000000)" fill="#FFFFFF">
            <g id="分组-16" transform="translate(886.000000, 1545.000000)">
                <g id="圆角-全屏-线-copy-2" transform="translate(343.000000, 176.000000)">
                    <g id="video-btn-grow" transform="translate(2.000000, 2.000000)">
                        <path d="M1.66666667,1.66666667 L1.66666667,16.3333333 L16.3333333,16.3333333 L16.3333333,1.66666667 L1.66666667,1.66666667 Z M1.66666667,0.444444444 L16.3333333,0.444444444 C17.008348,0.444444444 17.5555556,0.991651972 17.5555556,1.66666667 L17.5555556,16.3333333 C17.5555556,17.008348 17.008348,17.5555556 16.3333333,17.5555556 L1.66666667,17.5555556 C0.991651972,17.5555556 0.444444444,17.008348 0.444444444,16.3333333 L0.444444444,1.66666667 C0.444444444,0.991651972 0.991651972,0.444444444 1.66666667,0.444444444 Z" id="Rectangle-7" fill-rule="nonzero"></path>
                        <g id="Group-2" stroke-width="1" fill-rule="evenodd" transform="translate(10.222222, 2.888889)">
                            <rect id="Rectangle-55" x="0" y="0" width="4.88888889" height="1.22222222" rx="0.611111111"></rect>
                            <rect id="Rectangle-9" x="3.66666667" y="0" width="1.22222222" height="4.88888889" rx="0.611111111"></rect>
                            <path d="M1.04323192,4.70989859 C0.804578188,4.94855232 0.417644034,4.94855232 0.1789903,4.70989859 C-0.0596634335,4.47124485 -0.0596634335,4.0843107 0.1789903,3.84565697 L3.84565697,0.1789903 C4.0843107,-0.0596634335 4.47124485,-0.0596634335 4.70989859,0.1789903 C4.94855232,0.417644034 4.94855232,0.804578188 4.70989859,1.04323192 L1.04323192,4.70989859 Z" id="Path-23" fill-rule="nonzero"></path>
                        </g>
                        <g id="Group-2-Copy" stroke-width="1" fill-rule="evenodd" transform="translate(5.333333, 12.666667) scale(-1, -1) translate(-5.333333, -12.666667) translate(2.888889, 10.222222)">
                            <rect id="Rectangle-55" x="0" y="0" width="4.88888889" height="1.22222222" rx="0.611111111"></rect>
                            <rect id="Rectangle-9" x="3.66666667" y="0" width="1.22222222" height="4.88888889" rx="0.611111111"></rect>
                            <path d="M1.04323192,4.70989859 C0.804578188,4.94855232 0.417644034,4.94855232 0.1789903,4.70989859 C-0.0596634335,4.47124485 -0.0596634335,4.0843107 0.1789903,3.84565697 L3.84565697,0.1789903 C4.0843107,-0.0596634335 4.47124485,-0.0596634335 4.70989859,0.1789903 C4.94855232,0.417644034 4.94855232,0.804578188 4.70989859,1.04323192 L1.04323192,4.70989859 Z" id="Path-23" fill-rule="nonzero"></path>
                        </g>
                    </g>
                </g>
            </g>
        </g>
    </g>
</svg>