<?xml version="1.0" encoding="UTF-8"?>
<svg width="33px" height="15px" viewBox="0 0 33 15" version="1.1" xmlns="http://www.w3.org/2000/svg" xmlns:xlink="http://www.w3.org/1999/xlink">
    <!-- Generator: Sketch 43.1 (39012) - http://www.bohemiancoding.com/sketch -->
    <title>icon_play001</title>
    <desc>Created with Sketch.</desc>
    <defs></defs>
    <g id="买家端h5" stroke="none" stroke-width="1" fill="none" fill-rule="evenodd">
        <g id="音频－（未付费）_无试听-" transform="translate(-96.000000, -403.000000)">
            <g id="Group-19" transform="translate(0.000000, 345.000000)">
                <g id="Group-15" transform="translate(96.000000, 46.000000)">
                    <g id="Group-16" transform="translate(0.000000, 13.000000)">
                        <g id="Group-14">
                            <g id="Group-17">
                                <g id="Group-27">
                                    <g id="icon_play001">
                                        <g id="Group-24">
                                            <g id="Group-25">
                                                <g id="Group-26">
                                                    <path d="M6.0415993,0.456568912 C5.07956675,-0.0921092986 4.29968527,0.35851063 4.29968527,1.46250688 L4.29968527,11.9525931 C4.29968527,13.0568355 5.07619624,13.510335 6.0415993,12.9612307 L15.2772111,7.70817633 C16.2392436,7.16098905 16.2426142,6.27453685 15.2772111,5.72393633 L6.0415993,0.456568912 Z" id="Path-2-Copy-2" stroke="#CACACA" stroke-width="1.5" transform="translate(10.149843, 6.708742) scale(-1, 1) translate(-10.149843, -6.708742) "></path>
                                                    <path d="M22.0415993,0.456568912 C21.0795667,-0.0921092986 20.2996853,0.35851063 20.2996853,1.46250688 L20.2996853,11.9525931 C20.2996853,13.0568355 21.0761962,13.510335 22.0415993,12.9612307 L31.2772111,7.70817633 C32.2392436,7.16098905 32.2426142,6.27453685 31.2772111,5.72393633 L22.0415993,0.456568912 Z" id="Path-2-Copy-3" stroke="#CACACA" stroke-width="1.5" transform="translate(26.149843, 6.708742) scale(-1, 1) translate(-26.149843, -6.708742) "></path>
                                                    <rect id="Rectangle-10-Copy" fill="#CACACA" x="0" y="1" width="1.5" height="12" rx="0.75"></rect>
                                                </g>
                                            </g>
                                        </g>
                                    </g>
                                </g>
                            </g>
                        </g>
                    </g>
                </g>
            </g>
        </g>
    </g>
</svg>